<svg xmlns="http://www.w3.org/2000/svg" version="1.1" xmlns:xlink="http://www.w3.org/1999/xlink" viewBox="0 0 200 200" width="200" height="200"><rect width="200" height="200" fill="url('#gradient')"></rect><defs><linearGradient id="gradient" gradientTransform="rotate(360 0.5 0.5)"><stop offset="0%" stop-color="#cfcfcf"></stop><stop offset="100%" stop-color="#ffffff"></stop></linearGradient></defs><g><g fill="#c52727" transform="matrix(3.346825895663105,0,0,3.346825895663105,47.87201515149997,123.79530743149974)" stroke="#f71412" stroke-width="0.45"><path d="M4.05-14.22L6.38-9.49L8.70-14.22L12.62-14.22L8.64-7.17L12.72 0L8.77 0L6.38-4.81L3.98 0L0.04 0L4.11-7.17L0.15-14.22L4.05-14.22ZM22.74 0L21.91-2.66L17.22-2.66L16.40 0L12.73 0L17.95-14.22L21.17-14.22L26.43 0L22.74 0ZM19.56-10.23L18.04-5.30L21.09-5.30L19.56-10.23ZM31.11-14.22L31.11 0L27.70 0L27.70-14.22L31.11-14.22Z"></path></g></g></svg>